<svg width="133" height="130" viewBox="0 0 133 130" fill="none" xmlns="http://www.w3.org/2000/svg">
<path d="M55.4166 37.9167H77.5833V92.0834H66.4999V48.75H55.4166V37.9167ZM66.4999 10.8334C73.7773 10.8334 80.9835 12.2344 87.707 14.9566C94.4304 17.6787 100.54 21.6686 105.685 26.6984C110.831 31.7283 114.913 37.6995 117.698 44.2714C120.483 50.8432 121.917 57.8868 121.917 65C121.917 79.3659 116.078 93.1434 105.685 103.302C95.2928 113.46 81.1973 119.167 66.4999 119.167C59.2225 119.167 52.0163 117.766 45.2929 115.044C38.5694 112.321 32.4603 108.331 27.3144 103.302C16.9218 93.1434 11.0833 79.3659 11.0833 65C11.0833 50.6341 16.9218 36.8566 27.3144 26.6984C37.7071 16.5402 51.8025 10.8334 66.4999 10.8334ZM66.4999 21.6667C54.742 21.6667 43.4656 26.2322 35.1515 34.3587C26.8374 42.4853 22.1666 53.5073 22.1666 65C22.1666 76.4928 26.8374 87.5148 35.1515 95.6413C43.4656 103.768 54.742 108.333 66.4999 108.333C78.2578 108.333 89.5342 103.768 97.8483 95.6413C106.162 87.5148 110.833 76.4928 110.833 65C110.833 53.5073 106.162 42.4853 97.8483 34.3587C89.5342 26.2322 78.2578 21.6667 66.4999 21.6667Z" fill="black"/>
</svg>
