<svg width="20" height="20" viewBox="0 0 20 20" fill="none" xmlns="http://www.w3.org/2000/svg">
<path d="M10.0002 0C11.3263 0 12.5981 0.526784 13.5358 1.46447C14.4735 2.40215 15.0002 3.67392 15.0002 5C15.0002 6.32608 14.4735 7.59785 13.5358 8.53553C12.5981 9.47322 11.3263 10 10.0002 10C8.67416 10 7.40239 9.47322 6.46471 8.53553C5.52703 7.59785 5.00024 6.32608 5.00024 5C5.00024 3.67392 5.52703 2.40215 6.46471 1.46447C7.40239 0.526784 8.67416 0 10.0002 0ZM10.0002 12.5C15.5252 12.5 20.0002 14.7375 20.0002 17.5V20H0.000244141V17.5C0.000244141 14.7375 4.47524 12.5 10.0002 12.5Z" fill="white"/>
</svg>
