<svg id="Capa_1" data-name="Capa 1" xmlns="http://www.w3.org/2000/svg" viewBox="0 0 1015.82 464.85"><defs><style>.cls-1{fill:#fefefe;}.cls-2{fill:#fff;}</style></defs><path class="cls-1" d="M1040.88,481.8a162.76,162.76,0,0,0-7.31-47.7c-23.43-76.56-91.66-127-171.74-127q-205,0-409.91,0-210.45,0-420.91,0c-3.3,0-5.79-.44-5.78,4.6.17,94.63,0,189.25.2,283.88a170.58,170.58,0,0,0,13.19,65.66c28.24,67.86,92.3,110.6,166,110.64q170,.07,339.93,0,245.44,0,490.89,0c3.47,0,5.66.17,5.66-4.7Q1040.8,624.48,1040.88,481.8Zm-751,156.76c-30.62,11.64-62,12.17-93,1.87-29.78-9.92-45.33-32.85-45.63-64.47-.2-21.31,0-42.63,0-64h0c0-21.65.12-43.3-.11-64.95,0-4.28,1.27-5.16,5.3-5.11q26.23.35,52.47,0c4.09-.05,5.27.92,5.25,5.14C213.91,484.4,214,521.71,214,559c0,6.21.57,12.29,2.72,18.15,3,8.1,8.21,14,16.52,16.82a48.22,48.22,0,0,0,32.33-.42c9.07-3.24,13.27-10.68,14.37-19.92a89.15,89.15,0,0,0,.42-10.47c0-38.64.08-77.28-.07-115.92,0-4.05.88-5.37,5.13-5.3q25,.38,50,0c4.33-.07,5.12,1.3,5.11,5.32-.15,38.64-.59,77.28.05,115.91C341.12,599.7,321.47,626.53,289.84,638.56ZM561.09,637c0,3.33-1,4.13-4.19,4.11-17-.15-34-.19-51,0-3.34,0-5.05-1.24-6.77-3.8Q463.66,584.2,428,531.17c-1-1.52-2.05-3-3.3-4.87-1.3,1.78-.77,3.59-.77,5.22,0,34.8-.11,69.61.07,104.41,0,4.18-1.09,5.27-5.23,5.2-16.32-.24-32.64-.17-49,0-3.22,0-4.67-.46-4.66-4.24q.18-95.18,0-190.35c0-3.26.93-4.29,4.23-4.27,19.15.14,38.31.17,57.46,0,3.41,0,4.6,1.93,6.05,4.19q32.47,50.63,65,101.22c1.06,1.67,2.14,3.32,3.21,5l1-.27V547c0-33.31.05-66.62-.08-99.93,0-3.58.68-4.9,4.61-4.85,16.65.23,33.31.19,50,0,3.45,0,4.48.88,4.47,4.42Q560.94,541.83,561.09,637Zm217.32,4.11c-17.49-.2-35-.15-52.48,0-3,0-4.34-.84-5.16-3.83-2.6-9.46-5.67-18.78-8.31-28.22-.79-2.82-1.82-4.07-5-4q-31.5.24-63,0c-3.08,0-4.36,1-5.19,3.89-2.76,9.58-5.77,19.09-8.73,28.62-.51,1.63-.56,3.56-3.28,3.55-17.78-.09-35.56-.05-53.92-.05,4.46-12.78,8.7-25,13-37.21q27.4-77.85,54.73-155.73c1.56-4.49,3.6-6,8.39-5.91,21.66.29,43.32.22,65,0,3.48,0,4.82,1.08,5.87,4.32Q751,541.42,782,636.21C783.35,640.34,782.61,641.16,778.41,641.11Zm162.08-37.66c-1.45,10.88-2.6,21.82-3.25,32.78-.26,4.44-2,4.89-5.74,4.88-40.15-.12-80.3-.07-120.45-.07-3.66,0-7.35-.27-11,.07-3.94.35-5-1-5-4.93.16-31.48.09-63,.09-94.44s.06-63-.08-94.44c0-3.81.83-5.16,4.93-5.11q26.24.36,52.47,0c4.16-.06,5.3,1.1,5.29,5.27q-.21,72.94-.08,145.9c0,7.49-.91,6.55,6.75,6.4,23.82-.44,47.63-.87,71.44-1.58C940.33,598.06,941.06,599.2,940.49,603.45Z" transform="translate(-25.23 -307.03)"/><path class="cls-2" d="M654,562.28c7.57-24.08,14.95-47.59,22.34-71.13,2.06.79,1.81,2.6,2.21,3.91,6.27,20.8,12.37,41.66,18.72,62.44,1.11,3.63.93,4.94-3.37,4.87C680.75,562.13,667.64,562.28,654,562.28Z" transform="translate(-25.23 -307.03)"/></svg>